<svg width="27" height="27" viewBox="0 0 27 27" fill="none" xmlns="http://www.w3.org/2000/svg">
<path opacity="0.4" d="M26.6667 13.3333C26.6667 20.6973 20.6973 26.6667 13.3333 26.6667C5.96933 26.6667 0 20.6973 0 13.3333C0 5.97067 5.96933 0 13.3333 0C20.6973 0 26.6667 5.97067 26.6667 13.3333Z" fill="black"/>
<path d="M18.4803 8.94007L16.3203 15.7667C16.2403 16.0467 16.0136 16.2734 15.7336 16.3547L8.93361 18.4867C8.48027 18.6347 8.04027 18.1934 8.18694 17.7401L10.3203 10.9001C10.4003 10.6201 10.6269 10.4067 10.9069 10.3134L17.7336 8.18007C18.2003 8.03341 18.6269 8.47341 18.4803 8.94007Z" fill="black"/>
</svg>
