<svg width="27" height="27" viewBox="0 0 27 27" fill="none" xmlns="http://www.w3.org/2000/svg">
<path opacity="0.4" d="M19.1104 26.6667H7.55491C3.03586 26.6667 0 23.4972 0 18.779V7.88896C0 3.17082 3.03586 0 7.55491 0H19.1118C23.6308 0 26.6667 3.17082 26.6667 7.88896V18.779C26.6667 23.4972 23.6308 26.6667 19.1104 26.6667Z" fill="black"/>
<path fill-rule="evenodd" clip-rule="evenodd" d="M12.3271 8.89963C12.3271 10.7263 10.8404 12.213 9.01372 12.213C7.18572 12.213 5.70039 10.7263 5.70039 8.89963C5.70039 7.07296 7.18572 5.58496 9.01372 5.58496C10.8404 5.58496 12.3271 7.07296 12.3271 8.89963ZM23.201 16.1164C23.5117 16.4177 23.7343 16.7617 23.881 17.1284C24.325 18.2377 24.0943 19.5711 23.6197 20.6697C23.057 21.9777 21.9797 22.9657 20.6223 23.3977C20.0197 23.5911 19.3877 23.6737 18.757 23.6737H7.58232C6.47032 23.6737 5.48632 23.4151 4.67965 22.9297C4.17432 22.6257 4.08499 21.9257 4.45965 21.4697C5.08632 20.7097 5.70499 19.9471 6.32899 19.1777C7.51832 17.7057 8.31965 17.2791 9.21032 17.6537C9.57165 17.8084 9.93432 18.0417 10.3077 18.2871C11.3023 18.9457 12.685 19.8497 14.5063 18.8684C15.7513 18.1877 16.474 17.0228 17.103 16.0088L17.1157 15.9884C17.158 15.9206 17.2 15.8527 17.2418 15.7851C17.4557 15.4395 17.6663 15.0991 17.905 14.7857C18.201 14.3977 19.2997 13.1844 20.7197 14.0484C21.625 14.5924 22.3863 15.3284 23.201 16.1164Z" fill="black"/>
</svg>
